<?xml version="1.0" encoding="UTF-8"?>
<svg id="Layer_1" data-name="Layer 1" xmlns="http://www.w3.org/2000/svg" version="1.1" viewBox="0 0 871 384">
  <defs>
    <style>
      .cls-1 {
        fill: #cd6943;
      }

      .cls-1, .cls-2, .cls-3, .cls-4, .cls-5, .cls-6, .cls-7 {
        stroke-width: 0px;
      }

      .cls-2 {
        fill: none;
      }

      .cls-3 {
        fill: #203666;
      }

      .cls-4 {
        fill: #cd6a43;
      }

      .cls-5 {
        fill: #dbdbdb;
      }

      .cls-8, .cls-9 {
        isolation: isolate;
      }

      .cls-9 {
        fill: #c6c6c6;
        font-family: ArialMTPro-Bold, 'Arial MT Pro';
        font-size: 46.7px;
        font-weight: 700;
      }

      .cls-6 {
        fill: #fff;
      }

      .cls-7 {
        fill: #44536d;
      }
    </style>
  </defs>
  <path class="cls-6" d="M128.8,13.7h0c14.7,0,26.6,11.9,26.6,26.6v173.1c0,14.7-11.9,26.6-26.6,26.6h0c-14.7,0-26.6-11.9-26.6-26.6V40.3c0-14.7,11.9-26.6,26.6-26.6Z"/>
  <circle class="cls-4" cx="39.7" cy="173.8" r="27.6"/>
  <circle class="cls-1" cx="207" cy="48.7" r="34.2"/>
  <circle class="cls-3" cx="70.2" cy="124.3" r="18.2"/>
  <g>
    <path class="cls-6" d="M231.7,201.9v11.6c0,14.7-11.9,26.6-26.6,26.6s-26.6-11.9-26.6-26.6v-64.7l53.1,53.1Z"/>
    <path class="cls-6" d="M231.7,199.1v2.8l-1.8-1.8c.6-.3,1.2-.7,1.8-1h0Z"/>
    <polygon class="cls-6" points="231.7 113.8 231.7 128.7 194.3 91.2 231.7 113.8"/>
    <g>
      <path class="cls-5" d="M231.7,199.1v2.8l-1.8-1.8c.6-.3,1.2-.7,1.8-1h0Z"/>
      <path class="cls-5" d="M231.7,159.6v39.5c-.6.4-1.2.7-1.8,1l-52.8-52.8-8-8c-10.9-10.9-10.9-28.5,0-39.4l.8-.8,8.8,8.6,20.7,20.3,32.4,31.7h0Z"/>
    </g>
    <path class="cls-6" d="M304.5,157.8v55.6c0,5-1.4,9.7-3.8,13.7-4.7,7.7-13.1,12.9-22.8,12.9s-7-.7-10-2c-6.5-2.7-11.8-7.9-14.5-14.5-1.3-3.1-2-6.5-2-10v-87.7l-19.6-11.9-37.5-22.6c12.5-1.3,25-1.6,37.5-.1,6.5.8,13.1,2,19.6,4,27.8,8.7,46.8,27.9,53.1,62.8h0Z"/>
    <line class="cls-2" x1="251.4" y1="178.8" x2="249.5" y2="177"/>
    <path class="cls-6" d="M231.7,128.7c10.8,8.9,18,19.8,19.6,33.8l17.5-22.2-13.1-26.2-27.6-5.8,3.6,20.4Z"/>
  </g>
  <g>
    <path class="cls-7" d="M355,211.4l25.1-1.5c.6,4,1.7,7.2,3.3,9.3,2.7,3.4,6.6,5.2,11.6,5.2s6.6-.8,8.6-2.6c2-1.8,3.1-3.8,3.1-6.1s-.9-4.1-3-5.9-6.4-3.4-13.5-5c-11.6-2.6-19.7-6-24.7-10.4-5-4.3-7.4-9.8-7.4-16.4s1.3-8.5,3.8-12.4,6.4-7,11.5-9.2c5.1-2.2,12.1-3.3,20.9-3.3s19.1,2,24.9,6c5.7,4,9.1,10.5,10.2,19.3l-24.8,1.4c-.7-3.8-2-6.6-4.1-8.4s-5.1-2.6-8.7-2.6-5.3.6-7,1.9c-1.5,1.3-2.4,2.8-2.4,4.7s.6,2.6,1.9,3.7c1.2,1.2,4.1,2.1,8.9,3.2,11.5,2.5,19.7,5,24.7,7.6,5,2.5,8.6,5.7,10.9,9.5s3.4,7.9,3.4,12.6-1.5,10.5-4.5,15.1c-3.1,4.6-7.2,8.2-12.6,10.5-5.4,2.4-12.3,3.5-20.6,3.5-14.5,0-24.5-2.8-30.1-8.4-5.6-5.6-8.7-12.6-9.5-21.3h.2Z"/>
    <path class="cls-7" d="M446.5,154.4h26.4v85.2h-26.4v-85.2h0Z"/>
    <path class="cls-7" d="M534.7,208.7v-17.7h40.7v36.3c-7.8,5.3-14.7,8.9-20.7,10.9-6,1.9-13.1,2.8-21.3,2.8s-18.3-1.8-24.7-5.2c-6.4-3.4-11.3-8.6-14.8-15.4-3.5-6.9-5.2-14.7-5.2-23.5s1.9-17.4,5.8-24.2,9.5-12.1,16.9-15.6c5.8-2.7,13.6-4.1,23.3-4.1s16.4.8,21.2,2.6c4.6,1.7,8.5,4.4,11.6,7.9,3.1,3.5,5.4,8.2,7,13.6l-25.4,4.5c-1.1-3.2-2.8-5.7-5.3-7.3-2.5-1.7-5.7-2.6-9.6-2.6-5.8,0-10.4,2-13.8,6s-5.2,10.4-5.2,19,1.8,15.8,5.2,19.7c3.4,3.9,8.3,5.9,14.5,5.9s5.8-.5,8.4-1.3c2.7-.8,5.7-2.2,9.2-4.4v-8h-17.7Z"/>
    <path class="cls-7" d="M590.9,154.4h70.6v18.2h-44.2v13.6h41v17.4h-41v16.8h45.4v19.3h-71.9v-85.2h.1Z"/>
    <path class="cls-7" d="M677.3,239.5v-85.2h43.9c8.2,0,14.3.7,18.7,2.1,4.3,1.4,7.8,4,10.4,7.8,2.6,3.8,3.9,8.4,3.9,13.8s-1.1,8.7-3.1,12.2-4.7,6.3-8.3,8.4c-2.2,1.3-5.3,2.5-9.2,3.4,3.2,1.1,5.4,2.1,6.9,3.2.9.7,2.4,2.2,4.3,4.5s3.1,4,3.7,5.3l12.8,24.7h-29.8l-14.1-26c-1.8-3.4-3.4-5.6-4.7-6.6-1.9-1.3-4-2-6.5-2h-2.4v34.5h-26.5.1ZM703.7,188.9h11.1c1.2,0,3.5-.4,7-1.2,1.8-.4,3.2-1.2,4.3-2.7,1.1-1.4,1.7-3.1,1.7-5,0-2.7-.8-4.8-2.6-6.4-1.8-1.4-5-2.2-9.8-2.2h-11.6v17.5Z"/>
    <path class="cls-7" d="M769.6,154.4h26.4v29.8h28.7v-29.8h26.5v85.2h-26.5v-34.5h-28.7v34.5h-26.4v-85.2h0Z"/>
  </g>
  <g class="cls-8">
    <text class="cls-9" transform="translate(41.7 314.3)"><tspan x="0" y="0">GESTIÓN DE RECURSOS HUMANOS</tspan></text>
  </g>
</svg>